<?xml version="1.0" encoding="UTF-8" standalone="no"?>
<!DOCTYPE svg PUBLIC "-//W3C//DTD SVG 1.1//EN"
 "http://www.w3.org/Graphics/SVG/1.1/DTD/svg11.dtd">
<!-- Generated by graphviz version 2.43.0 (0)
 -->
<!-- Title: G Pages: 1 -->
<svg width="2699pt" height="427pt"
 viewBox="0.00 0.00 2699.20 426.95" xmlns="http://www.w3.org/2000/svg" xmlns:xlink="http://www.w3.org/1999/xlink">
<g id="graph0" class="graph" transform="scale(1 1) rotate(0) translate(21.6 405.35)">
<title>G</title>
<polygon fill="#111111" stroke="transparent" points="-21.6,21.6 -21.6,-405.35 2677.6,-405.35 2677.6,21.6 -21.6,21.6"/>
<!-- ../../components/ui/cloudinary/CloudinaryImage.tsx -->
<g id="node1" class="node">
<title>../../components/ui/cloudinary/CloudinaryImage.tsx</title>
<path fill="none" stroke="#c6c5fe" d="M1202.83,-197.07C1202.83,-197.07 898.17,-197.07 898.17,-197.07 894.33,-197.07 890.5,-193.24 890.5,-189.4 890.5,-189.4 890.5,-181.74 890.5,-181.74 890.5,-177.9 894.33,-174.07 898.17,-174.07 898.17,-174.07 1202.83,-174.07 1202.83,-174.07 1206.67,-174.07 1210.5,-177.9 1210.5,-181.74 1210.5,-181.74 1210.5,-189.4 1210.5,-189.4 1210.5,-193.24 1206.67,-197.07 1202.83,-197.07"/>
<text text-anchor="middle" x="1050.5" y="-181.87" font-family="Arial" font-size="14.00" fill="#c6c5fe">../../components/ui/cloudinary/CloudinaryImage.tsx</text>
</g>
<!-- ../../lib/cloudinary/imageTransforms.ts -->
<g id="node2" class="node">
<title>../../lib/cloudinary/imageTransforms.ts</title>
<path fill="none" stroke="#cfffac" d="M1609.83,-316.07C1609.83,-316.07 1383.17,-316.07 1383.17,-316.07 1379.33,-316.07 1375.5,-312.24 1375.5,-308.4 1375.5,-308.4 1375.5,-300.74 1375.5,-300.74 1375.5,-296.9 1379.33,-293.07 1383.17,-293.07 1383.17,-293.07 1609.83,-293.07 1609.83,-293.07 1613.67,-293.07 1617.5,-296.9 1617.5,-300.74 1617.5,-300.74 1617.5,-308.4 1617.5,-308.4 1617.5,-312.24 1613.67,-316.07 1609.83,-316.07"/>
<text text-anchor="middle" x="1496.5" y="-300.87" font-family="Arial" font-size="14.00" fill="#cfffac">../../lib/cloudinary/imageTransforms.ts</text>
</g>
<!-- ../../components/ui/cloudinary/CloudinaryImage.tsx&#45;&gt;../../lib/cloudinary/imageTransforms.ts -->
<g id="edge1" class="edge">
<title>../../components/ui/cloudinary/CloudinaryImage.tsx&#45;&gt;../../lib/cloudinary/imageTransforms.ts</title>
<path fill="none" stroke="#757575" d="M1210.58,-192.57C1233.75,-195.61 1257.15,-199.8 1279,-205.57 1350.36,-224.42 1427.52,-265.15 1467.66,-288.06"/>
<polygon fill="#757575" stroke="#757575" points="1465.93,-291.11 1476.34,-293.07 1469.43,-285.04 1465.93,-291.11"/>
</g>
<!-- ../../lib/utils.ts -->
<g id="node3" class="node">
<title>../../lib/utils.ts</title>
<path fill="none" stroke="#cfffac" d="M1536.33,-197.07C1536.33,-197.07 1456.67,-197.07 1456.67,-197.07 1452.83,-197.07 1449,-193.24 1449,-189.4 1449,-189.4 1449,-181.74 1449,-181.74 1449,-177.9 1452.83,-174.07 1456.67,-174.07 1456.67,-174.07 1536.33,-174.07 1536.33,-174.07 1540.17,-174.07 1544,-177.9 1544,-181.74 1544,-181.74 1544,-189.4 1544,-189.4 1544,-193.24 1540.17,-197.07 1536.33,-197.07"/>
<text text-anchor="middle" x="1496.5" y="-181.87" font-family="Arial" font-size="14.00" fill="#cfffac">../../lib/utils.ts</text>
</g>
<!-- ../../components/ui/cloudinary/CloudinaryImage.tsx&#45;&gt;../../lib/utils.ts -->
<g id="edge2" class="edge">
<title>../../components/ui/cloudinary/CloudinaryImage.tsx&#45;&gt;../../lib/utils.ts</title>
<path fill="none" stroke="#757575" d="M1210.54,-185.57C1289.95,-185.57 1381.08,-185.57 1438.46,-185.57"/>
<polygon fill="#757575" stroke="#757575" points="1438.78,-189.07 1448.78,-185.57 1438.78,-182.07 1438.78,-189.07"/>
</g>
<!-- ../../features/galleries/components/GalleryThumbnailGrid.tsx -->
<g id="node4" class="node">
<title>../../features/galleries/components/GalleryThumbnailGrid.tsx</title>
<path fill="none" stroke="#c6c5fe" d="M2084.33,-41.07C2084.33,-41.07 1721.67,-41.07 1721.67,-41.07 1717.83,-41.07 1714,-37.24 1714,-33.4 1714,-33.4 1714,-25.74 1714,-25.74 1714,-21.9 1717.83,-18.07 1721.67,-18.07 1721.67,-18.07 2084.33,-18.07 2084.33,-18.07 2088.17,-18.07 2092,-21.9 2092,-25.74 2092,-25.74 2092,-33.4 2092,-33.4 2092,-37.24 2088.17,-41.07 2084.33,-41.07"/>
<text text-anchor="middle" x="1903" y="-25.87" font-family="Arial" font-size="14.00" fill="#c6c5fe">../../features/galleries/components/GalleryThumbnailGrid.tsx</text>
</g>
<!-- ../../features/galleries/hooks/useGallery.ts -->
<g id="node5" class="node">
<title>../../features/galleries/hooks/useGallery.ts</title>
<path fill="none" stroke="#c6c5fe" d="M2384.33,-81.07C2384.33,-81.07 2135.67,-81.07 2135.67,-81.07 2131.83,-81.07 2128,-77.24 2128,-73.4 2128,-73.4 2128,-65.74 2128,-65.74 2128,-61.9 2131.83,-58.07 2135.67,-58.07 2135.67,-58.07 2384.33,-58.07 2384.33,-58.07 2388.17,-58.07 2392,-61.9 2392,-65.74 2392,-65.74 2392,-73.4 2392,-73.4 2392,-77.24 2388.17,-81.07 2384.33,-81.07"/>
<text text-anchor="middle" x="2260" y="-65.87" font-family="Arial" font-size="14.00" fill="#c6c5fe">../../features/galleries/hooks/useGallery.ts</text>
</g>
<!-- ../../features/galleries/components/GalleryThumbnailGrid.tsx&#45;&gt;../../features/galleries/hooks/useGallery.ts -->
<g id="edge3" class="edge">
<title>../../features/galleries/components/GalleryThumbnailGrid.tsx&#45;&gt;../../features/galleries/hooks/useGallery.ts</title>
<path fill="none" stroke="#757575" d="M2006.2,-41.09C2050.19,-46.04 2101.76,-51.85 2146.8,-56.93"/>
<polygon fill="#757575" stroke="#757575" points="2146.57,-60.43 2156.9,-58.07 2147.36,-53.47 2146.57,-60.43"/>
</g>
<!-- ../../features/galleries/types/index.ts -->
<g id="node6" class="node">
<title>../../features/galleries/types/index.ts</title>
<path fill="none" stroke="#cfffac" d="M2648.33,-61.07C2648.33,-61.07 2435.67,-61.07 2435.67,-61.07 2431.83,-61.07 2428,-57.24 2428,-53.4 2428,-53.4 2428,-45.74 2428,-45.74 2428,-41.9 2431.83,-38.07 2435.67,-38.07 2435.67,-38.07 2648.33,-38.07 2648.33,-38.07 2652.17,-38.07 2656,-41.9 2656,-45.74 2656,-45.74 2656,-53.4 2656,-53.4 2656,-57.24 2652.17,-61.07 2648.33,-61.07"/>
<text text-anchor="middle" x="2542" y="-45.87" font-family="Arial" font-size="14.00" fill="#cfffac">../../features/galleries/types/index.ts</text>
</g>
<!-- ../../features/galleries/components/GalleryThumbnailGrid.tsx&#45;&gt;../../features/galleries/types/index.ts -->
<g id="edge4" class="edge">
<title>../../features/galleries/components/GalleryThumbnailGrid.tsx&#45;&gt;../../features/galleries/types/index.ts</title>
<path fill="none" stroke="#757575" d="M2092.11,-35.48C2197.15,-38.78 2325.06,-42.79 2417.43,-45.69"/>
<polygon fill="#757575" stroke="#757575" points="2417.56,-49.2 2427.66,-46.01 2417.78,-42.2 2417.56,-49.2"/>
</g>
<!-- ../../features/galleries/hooks/useGallery.ts&#45;&gt;../../features/galleries/types/index.ts -->
<g id="edge10" class="edge">
<title>../../features/galleries/hooks/useGallery.ts&#45;&gt;../../features/galleries/types/index.ts</title>
<path fill="none" stroke="#757575" d="M2392.39,-60.19C2400.78,-59.59 2409.2,-58.99 2417.55,-58.39"/>
<polygon fill="#757575" stroke="#757575" points="2417.95,-61.87 2427.68,-57.67 2417.46,-54.89 2417.95,-61.87"/>
</g>
<!-- ../../features/galleries/components/GalleryViewer.tsx -->
<g id="node7" class="node">
<title>../../features/galleries/components/GalleryViewer.tsx</title>
<path fill="none" stroke="#c6c5fe" d="M2059.83,-159.07C2059.83,-159.07 1746.17,-159.07 1746.17,-159.07 1742.33,-159.07 1738.5,-155.24 1738.5,-151.4 1738.5,-151.4 1738.5,-143.74 1738.5,-143.74 1738.5,-139.9 1742.33,-136.07 1746.17,-136.07 1746.17,-136.07 2059.83,-136.07 2059.83,-136.07 2063.67,-136.07 2067.5,-139.9 2067.5,-143.74 2067.5,-143.74 2067.5,-151.4 2067.5,-151.4 2067.5,-155.24 2063.67,-159.07 2059.83,-159.07"/>
<text text-anchor="middle" x="1903" y="-143.87" font-family="Arial" font-size="14.00" fill="#c6c5fe">../../features/galleries/components/GalleryViewer.tsx</text>
</g>
<!-- ../../features/galleries/components/GalleryViewer.tsx&#45;&gt;../../features/galleries/hooks/useGallery.ts -->
<g id="edge5" class="edge">
<title>../../features/galleries/components/GalleryViewer.tsx&#45;&gt;../../features/galleries/hooks/useGallery.ts</title>
<path fill="none" stroke="#757575" d="M2009.94,-136.02C2036.87,-132.24 2065.63,-127.46 2092,-121.57 2135.7,-111.82 2184.46,-96.05 2217.95,-84.43"/>
<polygon fill="#757575" stroke="#757575" points="2219.12,-87.73 2227.41,-81.12 2216.81,-81.12 2219.12,-87.73"/>
</g>
<!-- ../../features/galleries/components/GalleryViewer.tsx&#45;&gt;../../features/galleries/types/index.ts -->
<g id="edge6" class="edge">
<title>../../features/galleries/components/GalleryViewer.tsx&#45;&gt;../../features/galleries/types/index.ts</title>
<path fill="none" stroke="#757575" d="M2046.84,-136.06C2144.57,-126.84 2276.8,-111.76 2392,-89.57 2426.58,-82.91 2464.95,-72.54 2494.09,-64.02"/>
<polygon fill="#757575" stroke="#757575" points="2495.39,-67.29 2503.99,-61.1 2493.41,-60.58 2495.39,-67.29"/>
</g>
<!-- ../../features/galleries/components/MatchGalleryModal.tsx -->
<g id="node8" class="node">
<title>../../features/galleries/components/MatchGalleryModal.tsx</title>
<path fill="none" stroke="#c6c5fe" d="M1670.33,-79.07C1670.33,-79.07 1322.67,-79.07 1322.67,-79.07 1318.83,-79.07 1315,-75.24 1315,-71.4 1315,-71.4 1315,-63.74 1315,-63.74 1315,-59.9 1318.83,-56.07 1322.67,-56.07 1322.67,-56.07 1670.33,-56.07 1670.33,-56.07 1674.17,-56.07 1678,-59.9 1678,-63.74 1678,-63.74 1678,-71.4 1678,-71.4 1678,-75.24 1674.17,-79.07 1670.33,-79.07"/>
<text text-anchor="middle" x="1496.5" y="-63.87" font-family="Arial" font-size="14.00" fill="#c6c5fe">../../features/galleries/components/MatchGalleryModal.tsx</text>
</g>
<!-- ../../features/galleries/components/MatchGalleryModal.tsx&#45;&gt;../../features/galleries/components/GalleryThumbnailGrid.tsx -->
<g id="edge7" class="edge">
<title>../../features/galleries/components/MatchGalleryModal.tsx&#45;&gt;../../features/galleries/components/GalleryThumbnailGrid.tsx</title>
<path fill="none" stroke="#757575" d="M1619.96,-56.07C1667.07,-51.64 1721.05,-46.57 1769.1,-42.06"/>
<polygon fill="#757575" stroke="#757575" points="1769.63,-45.52 1779.26,-41.1 1768.97,-38.55 1769.63,-45.52"/>
</g>
<!-- ../../features/galleries/components/MatchGalleryModal.tsx&#45;&gt;../../features/galleries/hooks/useGallery.ts -->
<g id="edge9" class="edge">
<title>../../features/galleries/components/MatchGalleryModal.tsx&#45;&gt;../../features/galleries/hooks/useGallery.ts</title>
<path fill="none" stroke="#757575" d="M1678.45,-68.05C1812.9,-68.4 1993.72,-68.87 2117.63,-69.2"/>
<polygon fill="#757575" stroke="#757575" points="2117.94,-72.7 2127.95,-69.23 2117.96,-65.7 2117.94,-72.7"/>
</g>
<!-- ../../features/galleries/components/MatchGalleryModal.tsx&#45;&gt;../../features/galleries/components/GalleryViewer.tsx -->
<g id="edge8" class="edge">
<title>../../features/galleries/components/MatchGalleryModal.tsx&#45;&gt;../../features/galleries/components/GalleryViewer.tsx</title>
<path fill="none" stroke="#757575" d="M1555.89,-79.12C1629.38,-93.65 1755.42,-118.58 1833.43,-134.01"/>
<polygon fill="#757575" stroke="#757575" points="1833.14,-137.52 1843.63,-136.03 1834.5,-130.65 1833.14,-137.52"/>
</g>
<!-- ../../features/galleries/index.ts -->
<g id="node9" class="node">
<title>../../features/galleries/index.ts</title>
<path fill="none" stroke="#c6c5fe" d="M1138.83,-79.07C1138.83,-79.07 962.17,-79.07 962.17,-79.07 958.33,-79.07 954.5,-75.24 954.5,-71.4 954.5,-71.4 954.5,-63.74 954.5,-63.74 954.5,-59.9 958.33,-56.07 962.17,-56.07 962.17,-56.07 1138.83,-56.07 1138.83,-56.07 1142.67,-56.07 1146.5,-59.9 1146.5,-63.74 1146.5,-63.74 1146.5,-71.4 1146.5,-71.4 1146.5,-75.24 1142.67,-79.07 1138.83,-79.07"/>
<text text-anchor="middle" x="1050.5" y="-63.87" font-family="Arial" font-size="14.00" fill="#c6c5fe">../../features/galleries/index.ts</text>
</g>
<!-- ../../features/galleries/index.ts&#45;&gt;../../features/galleries/components/GalleryThumbnailGrid.tsx -->
<g id="edge11" class="edge">
<title>../../features/galleries/index.ts&#45;&gt;../../features/galleries/components/GalleryThumbnailGrid.tsx</title>
<path fill="none" stroke="#757575" d="M1146.55,-58.83C1196.63,-54.52 1259.09,-49.61 1315,-46.57 1444.33,-39.55 1589.86,-35.31 1703.66,-32.82"/>
<polygon fill="#757575" stroke="#757575" points="1703.95,-36.32 1713.87,-32.6 1703.8,-29.32 1703.95,-36.32"/>
</g>
<!-- ../../features/galleries/index.ts&#45;&gt;../../features/galleries/hooks/useGallery.ts -->
<g id="edge14" class="edge">
<title>../../features/galleries/index.ts&#45;&gt;../../features/galleries/hooks/useGallery.ts</title>
<path fill="none" stroke="#757575" d="M1146.53,-76.53C1196.6,-80.81 1259.07,-85.45 1315,-87.57 1660.09,-100.65 1747.04,-99.67 2092,-83.57 2102.24,-83.09 2112.83,-82.48 2123.47,-81.78"/>
<polygon fill="#757575" stroke="#757575" points="2123.94,-85.26 2133.68,-81.09 2123.47,-78.27 2123.94,-85.26"/>
</g>
<!-- ../../features/galleries/index.ts&#45;&gt;../../features/galleries/types/index.ts -->
<g id="edge15" class="edge">
<title>../../features/galleries/index.ts&#45;&gt;../../features/galleries/types/index.ts</title>
<path fill="none" stroke="#757575" d="M1121.77,-56.06C1174.74,-47.78 1249.25,-36.99 1315,-30.57 1658.84,2.99 1746.83,5.79 2092,-8.57 2209.78,-13.47 2344.38,-26.79 2435.24,-36.94"/>
<polygon fill="#757575" stroke="#757575" points="2434.95,-40.42 2445.27,-38.06 2435.73,-33.47 2434.95,-40.42"/>
</g>
<!-- ../../features/galleries/index.ts&#45;&gt;../../features/galleries/components/GalleryViewer.tsx -->
<g id="edge12" class="edge">
<title>../../features/galleries/index.ts&#45;&gt;../../features/galleries/components/GalleryViewer.tsx</title>
<path fill="none" stroke="#757575" d="M1096.84,-79.14C1149.05,-91.93 1237.61,-111.99 1315,-121.57 1453.21,-138.69 1610.95,-144.94 1728.08,-147.05"/>
<polygon fill="#757575" stroke="#757575" points="1728.16,-150.55 1738.22,-147.22 1728.28,-143.55 1728.16,-150.55"/>
</g>
<!-- ../../features/galleries/index.ts&#45;&gt;../../features/galleries/components/MatchGalleryModal.tsx -->
<g id="edge13" class="edge">
<title>../../features/galleries/index.ts&#45;&gt;../../features/galleries/components/MatchGalleryModal.tsx</title>
<path fill="none" stroke="#757575" d="M1146.75,-67.57C1192.93,-67.57 1250.11,-67.57 1304.71,-67.57"/>
<polygon fill="#757575" stroke="#757575" points="1304.88,-71.07 1314.88,-67.57 1304.88,-64.07 1304.88,-71.07"/>
</g>
<!-- ../../features/news/components/NewsHero.tsx -->
<g id="node10" class="node">
<title>../../features/news/components/NewsHero.tsx</title>
<path fill="none" stroke="#cfffac" d="M385.33,-156.07C385.33,-156.07 111.67,-156.07 111.67,-156.07 107.83,-156.07 104,-152.24 104,-148.4 104,-148.4 104,-140.74 104,-140.74 104,-136.9 107.83,-133.07 111.67,-133.07 111.67,-133.07 385.33,-133.07 385.33,-133.07 389.17,-133.07 393,-136.9 393,-140.74 393,-140.74 393,-148.4 393,-148.4 393,-152.24 389.17,-156.07 385.33,-156.07"/>
<text text-anchor="middle" x="248.5" y="-140.87" font-family="Arial" font-size="14.00" fill="#cfffac">../../features/news/components/NewsHero.tsx</text>
</g>
<!-- ../../features/news/components/NewsModal.tsx -->
<g id="node11" class="node">
<title>../../features/news/components/NewsModal.tsx</title>
<path fill="none" stroke="#c6c5fe" d="M748.33,-336.07C748.33,-336.07 466.67,-336.07 466.67,-336.07 462.83,-336.07 459,-332.24 459,-328.4 459,-328.4 459,-320.74 459,-320.74 459,-316.9 462.83,-313.07 466.67,-313.07 466.67,-313.07 748.33,-313.07 748.33,-313.07 752.17,-313.07 756,-316.9 756,-320.74 756,-320.74 756,-328.4 756,-328.4 756,-332.24 752.17,-336.07 748.33,-336.07"/>
<text text-anchor="middle" x="607.5" y="-320.87" font-family="Arial" font-size="14.00" fill="#c6c5fe">../../features/news/components/NewsModal.tsx</text>
</g>
<!-- ../../features/news/components/NewsModal.tsx&#45;&gt;../../lib/cloudinary/imageTransforms.ts -->
<g id="edge18" class="edge">
<title>../../features/news/components/NewsModal.tsx&#45;&gt;../../lib/cloudinary/imageTransforms.ts</title>
<path fill="none" stroke="#757575" d="M654.78,-336.09C697.78,-346.17 763.76,-360.03 822,-365.57 1024.2,-384.81 1077.8,-393.37 1279,-365.57 1341.98,-356.87 1412.43,-334.56 1455.36,-319.47"/>
<polygon fill="#757575" stroke="#757575" points="1456.63,-322.74 1464.88,-316.09 1454.28,-316.14 1456.63,-322.74"/>
</g>
<!-- ../../features/news/components/portable&#45;text/PortableTextComponents.tsx -->
<g id="node12" class="node">
<title>../../features/news/components/portable&#45;text/PortableTextComponents.tsx</title>
<path fill="none" stroke="#cfffac" d="M1271.33,-356.07C1271.33,-356.07 829.67,-356.07 829.67,-356.07 825.83,-356.07 822,-352.24 822,-348.4 822,-348.4 822,-340.74 822,-340.74 822,-336.9 825.83,-333.07 829.67,-333.07 829.67,-333.07 1271.33,-333.07 1271.33,-333.07 1275.17,-333.07 1279,-336.9 1279,-340.74 1279,-340.74 1279,-348.4 1279,-348.4 1279,-352.24 1275.17,-356.07 1271.33,-356.07"/>
<text text-anchor="middle" x="1050.5" y="-340.87" font-family="Arial" font-size="14.00" fill="#cfffac">../../features/news/components/portable&#45;text/PortableTextComponents.tsx</text>
</g>
<!-- ../../features/news/components/NewsModal.tsx&#45;&gt;../../features/news/components/portable&#45;text/PortableTextComponents.tsx -->
<g id="edge16" class="edge">
<title>../../features/news/components/NewsModal.tsx&#45;&gt;../../features/news/components/portable&#45;text/PortableTextComponents.tsx</title>
<path fill="none" stroke="#757575" d="M756.27,-331.27C774.2,-332.09 792.85,-332.93 811.67,-333.79"/>
<polygon fill="#757575" stroke="#757575" points="811.68,-337.29 821.83,-334.25 812,-330.3 811.68,-337.29"/>
</g>
<!-- ../../features/news/types/index.ts -->
<g id="node13" class="node">
<title>../../features/news/types/index.ts</title>
<path fill="none" stroke="#cfffac" d="M1147.33,-238.07C1147.33,-238.07 953.67,-238.07 953.67,-238.07 949.83,-238.07 946,-234.24 946,-230.4 946,-230.4 946,-222.74 946,-222.74 946,-218.9 949.83,-215.07 953.67,-215.07 953.67,-215.07 1147.33,-215.07 1147.33,-215.07 1151.17,-215.07 1155,-218.9 1155,-222.74 1155,-222.74 1155,-230.4 1155,-230.4 1155,-234.24 1151.17,-238.07 1147.33,-238.07"/>
<text text-anchor="middle" x="1050.5" y="-222.87" font-family="Arial" font-size="14.00" fill="#cfffac">../../features/news/types/index.ts</text>
</g>
<!-- ../../features/news/components/NewsModal.tsx&#45;&gt;../../features/news/types/index.ts -->
<g id="edge17" class="edge">
<title>../../features/news/components/NewsModal.tsx&#45;&gt;../../features/news/types/index.ts</title>
<path fill="none" stroke="#757575" d="M660.39,-313.04C742.05,-294.89 900.26,-259.74 987.69,-240.31"/>
<polygon fill="#757575" stroke="#757575" points="988.47,-243.72 997.47,-238.13 986.95,-236.89 988.47,-243.72"/>
</g>
<!-- ../../features/news/components/cards/NewsCard.tsx -->
<g id="node14" class="node">
<title>../../features/news/components/cards/NewsCard.tsx</title>
<path fill="none" stroke="#c6c5fe" d="M762.83,-197.07C762.83,-197.07 452.17,-197.07 452.17,-197.07 448.33,-197.07 444.5,-193.24 444.5,-189.4 444.5,-189.4 444.5,-181.74 444.5,-181.74 444.5,-177.9 448.33,-174.07 452.17,-174.07 452.17,-174.07 762.83,-174.07 762.83,-174.07 766.67,-174.07 770.5,-177.9 770.5,-181.74 770.5,-181.74 770.5,-189.4 770.5,-189.4 770.5,-193.24 766.67,-197.07 762.83,-197.07"/>
<text text-anchor="middle" x="607.5" y="-181.87" font-family="Arial" font-size="14.00" fill="#c6c5fe">../../features/news/components/cards/NewsCard.tsx</text>
</g>
<!-- ../../features/news/components/cards/NewsCard.tsx&#45;&gt;../../components/ui/cloudinary/CloudinaryImage.tsx -->
<g id="edge19" class="edge">
<title>../../features/news/components/cards/NewsCard.tsx&#45;&gt;../../components/ui/cloudinary/CloudinaryImage.tsx</title>
<path fill="none" stroke="#757575" d="M770.52,-185.57C806.23,-185.57 844.15,-185.57 880.14,-185.57"/>
<polygon fill="#757575" stroke="#757575" points="880.24,-189.07 890.24,-185.57 880.24,-182.07 880.24,-189.07"/>
</g>
<!-- ../../features/news/components/cards/NewsCard.tsx&#45;&gt;../../lib/utils.ts -->
<g id="edge21" class="edge">
<title>../../features/news/components/cards/NewsCard.tsx&#45;&gt;../../lib/utils.ts</title>
<path fill="none" stroke="#757575" d="M705.07,-174.05C741.64,-170.22 783.68,-166.45 822,-164.57 1024.87,-154.62 1076.13,-154.75 1279,-164.57 1333.3,-167.2 1394.99,-173.51 1438.59,-178.53"/>
<polygon fill="#757575" stroke="#757575" points="1438.38,-182.03 1448.72,-179.71 1439.19,-175.08 1438.38,-182.03"/>
</g>
<!-- ../../features/news/components/cards/NewsCard.tsx&#45;&gt;../../features/news/types/index.ts -->
<g id="edge20" class="edge">
<title>../../features/news/components/cards/NewsCard.tsx&#45;&gt;../../features/news/types/index.ts</title>
<path fill="none" stroke="#757575" d="M730.99,-197.07C760.77,-199.86 792.53,-202.83 822,-205.57 859,-209.01 899.39,-212.75 935.73,-216.1"/>
<polygon fill="#757575" stroke="#757575" points="935.59,-219.6 945.87,-217.04 936.23,-212.63 935.59,-219.6"/>
</g>
<!-- ../../features/news/components/cards/NewsPageCard.tsx -->
<g id="node15" class="node">
<title>../../features/news/components/cards/NewsPageCard.tsx</title>
<path fill="none" stroke="#c6c5fe" d="M778.33,-257.07C778.33,-257.07 436.67,-257.07 436.67,-257.07 432.83,-257.07 429,-253.24 429,-249.4 429,-249.4 429,-241.74 429,-241.74 429,-237.9 432.83,-234.07 436.67,-234.07 436.67,-234.07 778.33,-234.07 778.33,-234.07 782.17,-234.07 786,-237.9 786,-241.74 786,-241.74 786,-249.4 786,-249.4 786,-253.24 782.17,-257.07 778.33,-257.07"/>
<text text-anchor="middle" x="607.5" y="-241.87" font-family="Arial" font-size="14.00" fill="#c6c5fe">../../features/news/components/cards/NewsPageCard.tsx</text>
</g>
<!-- ../../features/news/components/cards/NewsPageCard.tsx&#45;&gt;../../lib/cloudinary/imageTransforms.ts -->
<g id="edge23" class="edge">
<title>../../features/news/components/cards/NewsPageCard.tsx&#45;&gt;../../lib/cloudinary/imageTransforms.ts</title>
<path fill="none" stroke="#757575" d="M666.23,-257.07C709.04,-265.1 768.93,-275.3 822,-280.57 1010.27,-299.28 1229.41,-303.93 1365.31,-304.82"/>
<polygon fill="#757575" stroke="#757575" points="1365.34,-308.32 1375.36,-304.88 1365.38,-301.32 1365.34,-308.32"/>
</g>
<!-- ../../features/news/components/cards/NewsPageCard.tsx&#45;&gt;../../lib/utils.ts -->
<g id="edge24" class="edge">
<title>../../features/news/components/cards/NewsPageCard.tsx&#45;&gt;../../lib/utils.ts</title>
<path fill="none" stroke="#757575" d="M749.89,-257.09C886.12,-265.52 1097.67,-271.63 1279,-246.57 1341.98,-237.87 1412.43,-215.56 1455.36,-200.47"/>
<polygon fill="#757575" stroke="#757575" points="1456.63,-203.74 1464.88,-197.09 1454.28,-197.14 1456.63,-203.74"/>
</g>
<!-- ../../features/news/components/cards/NewsPageCard.tsx&#45;&gt;../../features/news/types/index.ts -->
<g id="edge22" class="edge">
<title>../../features/news/components/cards/NewsPageCard.tsx&#45;&gt;../../features/news/types/index.ts</title>
<path fill="none" stroke="#757575" d="M786.28,-237.91C836.65,-235.74 890.11,-233.44 935.6,-231.48"/>
<polygon fill="#757575" stroke="#757575" points="935.94,-234.97 945.78,-231.04 935.64,-227.97 935.94,-234.97"/>
</g>
<!-- ../../features/news/components/index.ts -->
<g id="node16" class="node">
<title>../../features/news/components/index.ts</title>
<path fill="none" stroke="#ff6c60" d="M366.33,-197.07C366.33,-197.07 130.67,-197.07 130.67,-197.07 126.83,-197.07 123,-193.24 123,-189.4 123,-189.4 123,-181.74 123,-181.74 123,-177.9 126.83,-174.07 130.67,-174.07 130.67,-174.07 366.33,-174.07 366.33,-174.07 370.17,-174.07 374,-177.9 374,-181.74 374,-181.74 374,-189.4 374,-189.4 374,-193.24 370.17,-197.07 366.33,-197.07"/>
<text text-anchor="middle" x="248.5" y="-181.87" font-family="Arial" font-size="14.00" fill="#ff6c60">../../features/news/components/index.ts</text>
</g>
<!-- ../../features/news/components/index.ts&#45;&gt;../../features/news/components/NewsModal.tsx -->
<g id="edge25" class="edge">
<title>../../features/news/components/index.ts&#45;&gt;../../features/news/components/NewsModal.tsx</title>
<path fill="none" stroke="#757575" d="M272.96,-197.14C306.92,-213.66 371.94,-244.45 429,-266.57 471.69,-283.12 521.29,-299.06 557.2,-310.03"/>
<polygon fill="#757575" stroke="#757575" points="556.36,-313.43 566.94,-312.99 558.39,-306.73 556.36,-313.43"/>
</g>
<!-- ../../features/news/components/index.ts&#45;&gt;../../features/news/components/cards/NewsCard.tsx -->
<g id="edge26" class="edge">
<title>../../features/news/components/index.ts&#45;&gt;../../features/news/components/cards/NewsCard.tsx</title>
<path fill="none" stroke="#757575" d="M374.11,-185.57C393.56,-185.57 413.94,-185.57 434.22,-185.57"/>
<polygon fill="#757575" stroke="#757575" points="434.49,-189.07 444.49,-185.57 434.49,-182.07 434.49,-189.07"/>
</g>
<!-- ../../features/news/components/index.ts&#45;&gt;../../features/news/components/cards/NewsPageCard.tsx -->
<g id="edge27" class="edge">
<title>../../features/news/components/index.ts&#45;&gt;../../features/news/components/cards/NewsPageCard.tsx</title>
<path fill="none" stroke="#757575" d="M318.33,-197.14C378.22,-207.2 464.98,-221.79 527.65,-232.32"/>
<polygon fill="#757575" stroke="#757575" points="527.44,-235.83 537.88,-234.04 528.6,-228.93 527.44,-235.83"/>
</g>
<!-- ../../features/news/components/sections/NewsGrid.tsx -->
<g id="node17" class="node">
<title>../../features/news/components/sections/NewsGrid.tsx</title>
<path fill="none" stroke="#ff6c60" d="M769.33,-156.07C769.33,-156.07 445.67,-156.07 445.67,-156.07 441.83,-156.07 438,-152.24 438,-148.4 438,-148.4 438,-140.74 438,-140.74 438,-136.9 441.83,-133.07 445.67,-133.07 445.67,-133.07 769.33,-133.07 769.33,-133.07 773.17,-133.07 777,-136.9 777,-140.74 777,-140.74 777,-148.4 777,-148.4 777,-152.24 773.17,-156.07 769.33,-156.07"/>
<text text-anchor="middle" x="607.5" y="-140.87" font-family="Arial" font-size="14.00" fill="#ff6c60">../../features/news/components/sections/NewsGrid.tsx</text>
</g>
<!-- ../../features/news/components/index.ts&#45;&gt;../../features/news/components/sections/NewsGrid.tsx -->
<g id="edge28" class="edge">
<title>../../features/news/components/index.ts&#45;&gt;../../features/news/components/sections/NewsGrid.tsx</title>
<path fill="none" stroke="#757575" d="M288.01,-174.05C322.23,-168.1 373.88,-161.92 427.77,-155.72"/>
<polygon fill="#757575" stroke="#757575" points="428.32,-159.18 437.86,-154.56 427.52,-152.22 428.32,-159.18"/>
</g>
<!-- ../../features/news/components/sections/NewsGrid.tsx&#45;&gt;../../lib/utils.ts -->
<g id="edge32" class="edge">
<title>../../features/news/components/sections/NewsGrid.tsx&#45;&gt;../../lib/utils.ts</title>
<path fill="none" stroke="#757575" d="M777.3,-139.77C913.1,-137.61 1108.69,-138.32 1279,-153.57 1295.16,-155.02 1298.97,-157.08 1315,-159.57 1356.29,-165.98 1402.98,-172.7 1438.52,-177.69"/>
<polygon fill="#757575" stroke="#757575" points="1438.32,-181.2 1448.71,-179.12 1439.29,-174.27 1438.32,-181.2"/>
</g>
<!-- ../../features/news/components/sections/NewsGrid.tsx&#45;&gt;../../features/galleries/index.ts -->
<g id="edge29" class="edge">
<title>../../features/news/components/sections/NewsGrid.tsx&#45;&gt;../../features/galleries/index.ts</title>
<path fill="none" stroke="#757575" d="M759.26,-132.97C768.46,-130.35 777.45,-127.25 786,-123.57 805.13,-115.34 802.85,-101.76 822,-93.57 859.91,-77.35 904.45,-70.01 944.01,-67.01"/>
<polygon fill="#757575" stroke="#757575" points="944.49,-70.49 954.23,-66.32 944.02,-63.5 944.49,-70.49"/>
</g>
<!-- ../../features/news/components/sections/NewsGrid.tsx&#45;&gt;../../features/news/types/index.ts -->
<g id="edge31" class="edge">
<title>../../features/news/components/sections/NewsGrid.tsx&#45;&gt;../../features/news/types/index.ts</title>
<path fill="none" stroke="#757575" d="M766.69,-156.07C773.35,-158.53 779.81,-161.34 786,-164.57 807.5,-175.8 800.39,-194.56 822,-205.57 856.55,-223.17 897.89,-230.39 935.8,-232.59"/>
<polygon fill="#757575" stroke="#757575" points="935.72,-236.09 945.87,-233.07 936.05,-229.1 935.72,-236.09"/>
</g>
<!-- ../../features/news/components/sections/NewsGrid.tsx&#45;&gt;../../features/news/components/index.ts -->
<g id="edge30" class="edge">
<title>../../features/news/components/sections/NewsGrid.tsx&#45;&gt;../../features/news/components/index.ts</title>
<path fill="none" stroke="#757575" d="M566.31,-156.13C530.33,-162.07 476.14,-168.16 429,-173.57 414.43,-175.24 399.19,-177.01 384.01,-178.72"/>
<polygon fill="#757575" stroke="#757575" points="383.61,-175.24 374.06,-179.83 384.38,-182.2 383.61,-175.24"/>
</g>
<!-- ../../lib/env.ts -->
<g id="node18" class="node">
<title>../../lib/env.ts</title>
<path fill="none" stroke="#cfffac" d="M645.83,-115.07C645.83,-115.07 569.17,-115.07 569.17,-115.07 565.33,-115.07 561.5,-111.24 561.5,-107.4 561.5,-107.4 561.5,-99.74 561.5,-99.74 561.5,-95.9 565.33,-92.07 569.17,-92.07 569.17,-92.07 645.83,-92.07 645.83,-92.07 649.67,-92.07 653.5,-95.9 653.5,-99.74 653.5,-99.74 653.5,-107.4 653.5,-107.4 653.5,-111.24 649.67,-115.07 645.83,-115.07"/>
<text text-anchor="middle" x="607.5" y="-99.87" font-family="Arial" font-size="14.00" fill="#cfffac">../../lib/env.ts</text>
</g>
<!-- ../../lib/sanity/sanityClient.ts -->
<g id="node19" class="node">
<title>../../lib/sanity/sanityClient.ts</title>
<path fill="none" stroke="#c6c5fe" d="M330.33,-115.07C330.33,-115.07 166.67,-115.07 166.67,-115.07 162.83,-115.07 159,-111.24 159,-107.4 159,-107.4 159,-99.74 159,-99.74 159,-95.9 162.83,-92.07 166.67,-92.07 166.67,-92.07 330.33,-92.07 330.33,-92.07 334.17,-92.07 338,-95.9 338,-99.74 338,-99.74 338,-107.4 338,-107.4 338,-111.24 334.17,-115.07 330.33,-115.07"/>
<text text-anchor="middle" x="248.5" y="-99.87" font-family="Arial" font-size="14.00" fill="#c6c5fe">../../lib/sanity/sanityClient.ts</text>
</g>
<!-- ../../lib/sanity/sanityClient.ts&#45;&gt;../../lib/env.ts -->
<g id="edge33" class="edge">
<title>../../lib/sanity/sanityClient.ts&#45;&gt;../../lib/env.ts</title>
<path fill="none" stroke="#757575" d="M338.21,-103.57C404.89,-103.57 494.17,-103.57 551.03,-103.57"/>
<polygon fill="#757575" stroke="#757575" points="551.26,-107.07 561.26,-103.57 551.26,-100.07 551.26,-107.07"/>
</g>
<!-- page.tsx -->
<g id="node20" class="node">
<title>page.tsx</title>
<path fill="none" stroke="#c6c5fe" d="M60.33,-156.07C60.33,-156.07 7.67,-156.07 7.67,-156.07 3.83,-156.07 0,-152.24 0,-148.4 0,-148.4 0,-140.74 0,-140.74 0,-136.9 3.83,-133.07 7.67,-133.07 7.67,-133.07 60.33,-133.07 60.33,-133.07 64.17,-133.07 68,-136.9 68,-140.74 68,-140.74 68,-148.4 68,-148.4 68,-152.24 64.17,-156.07 60.33,-156.07"/>
<text text-anchor="middle" x="34" y="-140.87" font-family="Arial" font-size="14.00" fill="#c6c5fe">page.tsx</text>
</g>
<!-- page.tsx&#45;&gt;../../features/news/components/NewsHero.tsx -->
<g id="edge34" class="edge">
<title>page.tsx&#45;&gt;../../features/news/components/NewsHero.tsx</title>
<path fill="none" stroke="#757575" d="M68.2,-144.57C75.83,-144.57 84.44,-144.57 93.64,-144.57"/>
<polygon fill="#757575" stroke="#757575" points="93.85,-148.07 103.85,-144.57 93.85,-141.07 93.85,-148.07"/>
</g>
<!-- page.tsx&#45;&gt;../../features/news/components/index.ts -->
<g id="edge35" class="edge">
<title>page.tsx&#45;&gt;../../features/news/components/index.ts</title>
<path fill="none" stroke="#757575" d="M68.11,-155.16C79.41,-158.51 92.18,-162.01 104,-164.57 117.36,-167.47 131.52,-170.09 145.52,-172.41"/>
<polygon fill="#757575" stroke="#757575" points="145.25,-175.91 155.68,-174.04 146.37,-169 145.25,-175.91"/>
</g>
<!-- page.tsx&#45;&gt;../../lib/sanity/sanityClient.ts -->
<g id="edge36" class="edge">
<title>page.tsx&#45;&gt;../../lib/sanity/sanityClient.ts</title>
<path fill="none" stroke="#757575" d="M68.06,-133.36C79.36,-129.83 92.14,-126.19 104,-123.57 118.27,-120.43 133.45,-117.68 148.4,-115.31"/>
<polygon fill="#757575" stroke="#757575" points="149.34,-118.71 158.7,-113.73 148.28,-111.79 149.34,-118.71"/>
</g>
</g>
</svg>
