<?xml version="1.0" encoding="UTF-8" standalone="no"?>
<!DOCTYPE svg PUBLIC "-//W3C//DTD SVG 1.1//EN"
 "http://www.w3.org/Graphics/SVG/1.1/DTD/svg11.dtd">
<!-- Generated by graphviz version 2.43.0 (0)
 -->
<!-- Title: G Pages: 1 -->
<svg width="2014pt" height="533pt"
 viewBox="0.00 0.00 2014.20 533.43" xmlns="http://www.w3.org/2000/svg" xmlns:xlink="http://www.w3.org/1999/xlink">
<g id="graph0" class="graph" transform="scale(1 1) rotate(0) translate(21.6 511.83)">
<title>G</title>
<polygon fill="#111111" stroke="transparent" points="-21.6,21.6 -21.6,-511.83 1992.6,-511.83 1992.6,21.6 -21.6,21.6"/>
<!-- ../../features/team/components/PersonCard.tsx -->
<g id="node1" class="node">
<title>../../features/team/components/PersonCard.tsx</title>
<path fill="none" stroke="#c6c5fe" d="M1322.33,-343.83C1322.33,-343.83 1040.67,-343.83 1040.67,-343.83 1036.83,-343.83 1033,-339.99 1033,-336.16 1033,-336.16 1033,-328.49 1033,-328.49 1033,-324.66 1036.83,-320.83 1040.67,-320.83 1040.67,-320.83 1322.33,-320.83 1322.33,-320.83 1326.17,-320.83 1330,-324.66 1330,-328.49 1330,-328.49 1330,-336.16 1330,-336.16 1330,-339.99 1326.17,-343.83 1322.33,-343.83"/>
<text text-anchor="middle" x="1181.5" y="-328.63" font-family="Arial" font-size="14.00" fill="#c6c5fe">../../features/team/components/PersonCard.tsx</text>
</g>
<!-- ../../features/team/components/PlayerImage.tsx -->
<g id="node2" class="node">
<title>../../features/team/components/PlayerImage.tsx</title>
<path fill="none" stroke="#c6c5fe" d="M1685.33,-322.83C1685.33,-322.83 1398.67,-322.83 1398.67,-322.83 1394.83,-322.83 1391,-318.99 1391,-315.16 1391,-315.16 1391,-307.49 1391,-307.49 1391,-303.66 1394.83,-299.83 1398.67,-299.83 1398.67,-299.83 1685.33,-299.83 1685.33,-299.83 1689.17,-299.83 1693,-303.66 1693,-307.49 1693,-307.49 1693,-315.16 1693,-315.16 1693,-318.99 1689.17,-322.83 1685.33,-322.83"/>
<text text-anchor="middle" x="1542" y="-307.63" font-family="Arial" font-size="14.00" fill="#c6c5fe">../../features/team/components/PlayerImage.tsx</text>
</g>
<!-- ../../features/team/components/PersonCard.tsx&#45;&gt;../../features/team/components/PlayerImage.tsx -->
<g id="edge1" class="edge">
<title>../../features/team/components/PersonCard.tsx&#45;&gt;../../features/team/components/PlayerImage.tsx</title>
<path fill="none" stroke="#757575" d="M1330.13,-323.68C1346.75,-322.7 1363.75,-321.71 1380.52,-320.73"/>
<polygon fill="#757575" stroke="#757575" points="1381.15,-324.2 1390.93,-320.12 1380.74,-317.21 1381.15,-324.2"/>
</g>
<!-- ../../features/team/types/index.ts -->
<g id="node3" class="node">
<title>../../features/team/types/index.ts</title>
<path fill="none" stroke="#cfffac" d="M1638.83,-224.83C1638.83,-224.83 1445.17,-224.83 1445.17,-224.83 1441.33,-224.83 1437.5,-220.99 1437.5,-217.16 1437.5,-217.16 1437.5,-209.49 1437.5,-209.49 1437.5,-205.66 1441.33,-201.83 1445.17,-201.83 1445.17,-201.83 1638.83,-201.83 1638.83,-201.83 1642.67,-201.83 1646.5,-205.66 1646.5,-209.49 1646.5,-209.49 1646.5,-217.16 1646.5,-217.16 1646.5,-220.99 1642.67,-224.83 1638.83,-224.83"/>
<text text-anchor="middle" x="1542" y="-209.63" font-family="Arial" font-size="14.00" fill="#cfffac">../../features/team/types/index.ts</text>
</g>
<!-- ../../features/team/components/PersonCard.tsx&#45;&gt;../../features/team/types/index.ts -->
<g id="edge2" class="edge">
<title>../../features/team/components/PersonCard.tsx&#45;&gt;../../features/team/types/index.ts</title>
<path fill="none" stroke="#757575" d="M1323.83,-320.81C1334.49,-318.46 1344.99,-315.66 1355,-312.33 1372.57,-306.47 1374.78,-300.27 1391,-291.33 1431.13,-269.21 1478.09,-245.06 1508.64,-229.58"/>
<polygon fill="#757575" stroke="#757575" points="1510.6,-232.51 1517.95,-224.88 1507.44,-226.26 1510.6,-232.51"/>
</g>
<!-- ../../lib/utils.ts -->
<g id="node4" class="node">
<title>../../lib/utils.ts</title>
<path fill="none" stroke="#cfffac" d="M1581.83,-421.83C1581.83,-421.83 1502.17,-421.83 1502.17,-421.83 1498.33,-421.83 1494.5,-417.99 1494.5,-414.16 1494.5,-414.16 1494.5,-406.49 1494.5,-406.49 1494.5,-402.66 1498.33,-398.83 1502.17,-398.83 1502.17,-398.83 1581.83,-398.83 1581.83,-398.83 1585.67,-398.83 1589.5,-402.66 1589.5,-406.49 1589.5,-406.49 1589.5,-414.16 1589.5,-414.16 1589.5,-417.99 1585.67,-421.83 1581.83,-421.83"/>
<text text-anchor="middle" x="1542" y="-406.63" font-family="Arial" font-size="14.00" fill="#cfffac">../../lib/utils.ts</text>
</g>
<!-- ../../features/team/components/PersonCard.tsx&#45;&gt;../../lib/utils.ts -->
<g id="edge3" class="edge">
<title>../../features/team/components/PersonCard.tsx&#45;&gt;../../lib/utils.ts</title>
<path fill="none" stroke="#757575" d="M1235.4,-343.83C1302,-358.33 1415.95,-383.12 1484.3,-397.99"/>
<polygon fill="#757575" stroke="#757575" points="1483.94,-401.49 1494.45,-400.2 1485.42,-394.65 1483.94,-401.49"/>
</g>
<!-- ../../lib/cloudinary/imageTransforms.ts -->
<g id="node6" class="node">
<title>../../lib/cloudinary/imageTransforms.ts</title>
<path fill="none" stroke="#cfffac" d="M1963.33,-322.83C1963.33,-322.83 1736.67,-322.83 1736.67,-322.83 1732.83,-322.83 1729,-318.99 1729,-315.16 1729,-315.16 1729,-307.49 1729,-307.49 1729,-303.66 1732.83,-299.83 1736.67,-299.83 1736.67,-299.83 1963.33,-299.83 1963.33,-299.83 1967.17,-299.83 1971,-303.66 1971,-307.49 1971,-307.49 1971,-315.16 1971,-315.16 1971,-318.99 1967.17,-322.83 1963.33,-322.83"/>
<text text-anchor="middle" x="1850" y="-307.63" font-family="Arial" font-size="14.00" fill="#cfffac">../../lib/cloudinary/imageTransforms.ts</text>
</g>
<!-- ../../features/team/components/PlayerImage.tsx&#45;&gt;../../lib/cloudinary/imageTransforms.ts -->
<g id="edge6" class="edge">
<title>../../features/team/components/PlayerImage.tsx&#45;&gt;../../lib/cloudinary/imageTransforms.ts</title>
<path fill="none" stroke="#757575" d="M1693.31,-311.33C1701.8,-311.33 1710.3,-311.33 1718.71,-311.33"/>
<polygon fill="#757575" stroke="#757575" points="1718.91,-314.83 1728.91,-311.33 1718.91,-307.83 1718.91,-314.83"/>
</g>
<!-- ../../features/team/components/PersonDetailsModal.tsx -->
<g id="node5" class="node">
<title>../../features/team/components/PersonDetailsModal.tsx</title>
<path fill="none" stroke="#c6c5fe" d="M1347.33,-302.83C1347.33,-302.83 1015.67,-302.83 1015.67,-302.83 1011.83,-302.83 1008,-298.99 1008,-295.16 1008,-295.16 1008,-287.49 1008,-287.49 1008,-283.66 1011.83,-279.83 1015.67,-279.83 1015.67,-279.83 1347.33,-279.83 1347.33,-279.83 1351.17,-279.83 1355,-283.66 1355,-287.49 1355,-287.49 1355,-295.16 1355,-295.16 1355,-298.99 1351.17,-302.83 1347.33,-302.83"/>
<text text-anchor="middle" x="1181.5" y="-287.63" font-family="Arial" font-size="14.00" fill="#c6c5fe">../../features/team/components/PersonDetailsModal.tsx</text>
</g>
<!-- ../../features/team/components/PersonDetailsModal.tsx&#45;&gt;../../features/team/components/PlayerImage.tsx -->
<g id="edge4" class="edge">
<title>../../features/team/components/PersonDetailsModal.tsx&#45;&gt;../../features/team/components/PlayerImage.tsx</title>
<path fill="none" stroke="#757575" d="M1355.19,-300.96C1363.66,-301.43 1372.15,-301.91 1380.59,-302.38"/>
<polygon fill="#757575" stroke="#757575" points="1380.67,-305.89 1390.85,-302.95 1381.06,-298.9 1380.67,-305.89"/>
</g>
<!-- ../../features/team/components/PersonDetailsModal.tsx&#45;&gt;../../features/team/types/index.ts -->
<g id="edge5" class="edge">
<title>../../features/team/components/PersonDetailsModal.tsx&#45;&gt;../../features/team/types/index.ts</title>
<path fill="none" stroke="#757575" d="M1273.3,-279.78C1299.76,-275.84 1328.64,-270.97 1355,-265.33 1403.3,-254.97 1457.62,-239.31 1495.02,-227.88"/>
<polygon fill="#757575" stroke="#757575" points="1496.1,-231.21 1504.63,-224.93 1494.04,-224.52 1496.1,-231.21"/>
</g>
<!-- ../../features/team/components/TeamFilter.tsx -->
<g id="node7" class="node">
<title>../../features/team/components/TeamFilter.tsx</title>
<path fill="none" stroke="#c6c5fe" d="M947.33,-184.83C947.33,-184.83 674.67,-184.83 674.67,-184.83 670.83,-184.83 667,-180.99 667,-177.16 667,-177.16 667,-169.49 667,-169.49 667,-165.66 670.83,-161.83 674.67,-161.83 674.67,-161.83 947.33,-161.83 947.33,-161.83 951.17,-161.83 955,-165.66 955,-169.49 955,-169.49 955,-177.16 955,-177.16 955,-180.99 951.17,-184.83 947.33,-184.83"/>
<text text-anchor="middle" x="811" y="-169.63" font-family="Arial" font-size="14.00" fill="#c6c5fe">../../features/team/components/TeamFilter.tsx</text>
</g>
<!-- ../../features/team/components/TeamFilter.tsx&#45;&gt;../../features/team/types/index.ts -->
<g id="edge7" class="edge">
<title>../../features/team/components/TeamFilter.tsx&#45;&gt;../../features/team/types/index.ts</title>
<path fill="none" stroke="#757575" d="M955.25,-179.12C1064.77,-183.8 1219.47,-190.98 1355,-199.33 1378.33,-200.76 1403.3,-202.5 1427.11,-204.26"/>
<polygon fill="#757575" stroke="#757575" points="1427.01,-207.76 1437.25,-205.01 1427.53,-200.78 1427.01,-207.76"/>
</g>
<!-- ../../features/team/components/TeamHero.tsx -->
<g id="node8" class="node">
<title>../../features/team/components/TeamHero.tsx</title>
<path fill="none" stroke="#cfffac" d="M606.33,-286.83C606.33,-286.83 333.67,-286.83 333.67,-286.83 329.83,-286.83 326,-282.99 326,-279.16 326,-279.16 326,-271.49 326,-271.49 326,-267.66 329.83,-263.83 333.67,-263.83 333.67,-263.83 606.33,-263.83 606.33,-263.83 610.17,-263.83 614,-267.66 614,-271.49 614,-271.49 614,-279.16 614,-279.16 614,-282.99 610.17,-286.83 606.33,-286.83"/>
<text text-anchor="middle" x="470" y="-271.63" font-family="Arial" font-size="14.00" fill="#cfffac">../../features/team/components/TeamHero.tsx</text>
</g>
<!-- ../../features/team/components/TeamPage.tsx -->
<g id="node9" class="node">
<title>../../features/team/components/TeamPage.tsx</title>
<path fill="none" stroke="#ff6c60" d="M282.33,-265.83C282.33,-265.83 7.67,-265.83 7.67,-265.83 3.83,-265.83 0,-261.99 0,-258.16 0,-258.16 0,-250.49 0,-250.49 0,-246.66 3.83,-242.83 7.67,-242.83 7.67,-242.83 282.33,-242.83 282.33,-242.83 286.17,-242.83 290,-246.66 290,-250.49 290,-250.49 290,-258.16 290,-258.16 290,-261.99 286.17,-265.83 282.33,-265.83"/>
<text text-anchor="middle" x="145" y="-250.63" font-family="Arial" font-size="14.00" fill="#ff6c60">../../features/team/components/TeamPage.tsx</text>
</g>
<!-- ../../features/team/components/TeamPage.tsx&#45;&gt;../../lib/utils.ts -->
<g id="edge16" class="edge">
<title>../../features/team/components/TeamPage.tsx&#45;&gt;../../lib/utils.ts</title>
<path fill="none" stroke="#757575" d="M155.83,-266.14C180.75,-295.08 249.81,-369.38 326,-399.33 743.67,-563.49 1306.25,-462.4 1484.43,-423.55"/>
<polygon fill="#757575" stroke="#757575" points="1485.36,-426.93 1494.37,-421.36 1483.85,-420.09 1485.36,-426.93"/>
</g>
<!-- ../../features/team/components/TeamPage.tsx&#45;&gt;../../features/team/components/PersonDetailsModal.tsx -->
<g id="edge8" class="edge">
<title>../../features/team/components/TeamPage.tsx&#45;&gt;../../features/team/components/PersonDetailsModal.tsx</title>
<path fill="none" stroke="#757575" d="M161.35,-265.96C191.22,-287.89 260.01,-335.07 326,-356.33 462.84,-400.4 851.09,-469.1 972,-391.33 1004.45,-370.45 976.87,-335.13 1008,-312.33 1010.13,-310.77 1012.32,-309.29 1014.55,-307.89"/>
<polygon fill="#757575" stroke="#757575" points="1016.43,-310.85 1023.4,-302.87 1012.98,-304.76 1016.43,-310.85"/>
</g>
<!-- ../../features/team/components/TeamPage.tsx&#45;&gt;../../features/team/components/TeamFilter.tsx -->
<g id="edge9" class="edge">
<title>../../features/team/components/TeamPage.tsx&#45;&gt;../../features/team/components/TeamFilter.tsx</title>
<path fill="none" stroke="#757575" d="M190.07,-242.8C226.32,-233.73 279.17,-221.48 326,-214.33 436.1,-197.51 561.42,-187.13 656.96,-181.02"/>
<polygon fill="#757575" stroke="#757575" points="657.22,-184.51 666.98,-180.39 656.78,-177.53 657.22,-184.51"/>
</g>
<!-- ../../features/team/components/TeamPage.tsx&#45;&gt;../../features/team/components/TeamHero.tsx -->
<g id="edge10" class="edge">
<title>../../features/team/components/TeamPage.tsx&#45;&gt;../../features/team/components/TeamHero.tsx</title>
<path fill="none" stroke="#757575" d="M290.02,-263.69C298.61,-264.25 307.26,-264.81 315.88,-265.37"/>
<polygon fill="#757575" stroke="#757575" points="315.77,-268.87 325.98,-266.03 316.23,-261.89 315.77,-268.87"/>
</g>
<!-- ../../features/team/components/TeamSearchBar.tsx -->
<g id="node10" class="node">
<title>../../features/team/components/TeamSearchBar.tsx</title>
<path fill="none" stroke="#cfffac" d="M964.33,-340.83C964.33,-340.83 657.67,-340.83 657.67,-340.83 653.83,-340.83 650,-336.99 650,-333.16 650,-333.16 650,-325.49 650,-325.49 650,-321.66 653.83,-317.83 657.67,-317.83 657.67,-317.83 964.33,-317.83 964.33,-317.83 968.17,-317.83 972,-321.66 972,-325.49 972,-325.49 972,-333.16 972,-333.16 972,-336.99 968.17,-340.83 964.33,-340.83"/>
<text text-anchor="middle" x="811" y="-325.63" font-family="Arial" font-size="14.00" fill="#cfffac">../../features/team/components/TeamSearchBar.tsx</text>
</g>
<!-- ../../features/team/components/TeamPage.tsx&#45;&gt;../../features/team/components/TeamSearchBar.tsx -->
<g id="edge11" class="edge">
<title>../../features/team/components/TeamPage.tsx&#45;&gt;../../features/team/components/TeamSearchBar.tsx</title>
<path fill="none" stroke="#757575" d="M187.1,-265.91C223.35,-275.65 277.76,-289.1 326,-296.33 429.57,-311.84 546.72,-320.06 639.81,-324.43"/>
<polygon fill="#757575" stroke="#757575" points="639.74,-327.93 649.89,-324.89 640.06,-320.93 639.74,-327.93"/>
</g>
<!-- ../../features/team/components/TeamSection.tsx -->
<g id="node11" class="node">
<title>../../features/team/components/TeamSection.tsx</title>
<path fill="none" stroke="#c6c5fe" d="M955.33,-381.83C955.33,-381.83 666.67,-381.83 666.67,-381.83 662.83,-381.83 659,-377.99 659,-374.16 659,-374.16 659,-366.49 659,-366.49 659,-362.66 662.83,-358.83 666.67,-358.83 666.67,-358.83 955.33,-358.83 955.33,-358.83 959.17,-358.83 963,-362.66 963,-366.49 963,-366.49 963,-374.16 963,-374.16 963,-377.99 959.17,-381.83 955.33,-381.83"/>
<text text-anchor="middle" x="811" y="-366.63" font-family="Arial" font-size="14.00" fill="#c6c5fe">../../features/team/components/TeamSection.tsx</text>
</g>
<!-- ../../features/team/components/TeamPage.tsx&#45;&gt;../../features/team/components/TeamSection.tsx -->
<g id="edge12" class="edge">
<title>../../features/team/components/TeamPage.tsx&#45;&gt;../../features/team/components/TeamSection.tsx</title>
<path fill="none" stroke="#757575" d="M169.8,-265.83C203.64,-281.64 268.02,-309.66 326,-323.33 431.84,-348.27 553.71,-360.01 648.67,-365.52"/>
<polygon fill="#757575" stroke="#757575" points="648.76,-369.03 658.94,-366.1 649.16,-362.04 648.76,-369.03"/>
</g>
<!-- ../../features/team/hooks/useTeamData.ts -->
<g id="node12" class="node">
<title>../../features/team/hooks/useTeamData.ts</title>
<path fill="none" stroke="#c6c5fe" d="M935.33,-143.83C935.33,-143.83 686.67,-143.83 686.67,-143.83 682.83,-143.83 679,-139.99 679,-136.16 679,-136.16 679,-128.49 679,-128.49 679,-124.66 682.83,-120.83 686.67,-120.83 686.67,-120.83 935.33,-120.83 935.33,-120.83 939.17,-120.83 943,-124.66 943,-128.49 943,-128.49 943,-136.16 943,-136.16 943,-139.99 939.17,-143.83 935.33,-143.83"/>
<text text-anchor="middle" x="811" y="-128.63" font-family="Arial" font-size="14.00" fill="#c6c5fe">../../features/team/hooks/useTeamData.ts</text>
</g>
<!-- ../../features/team/components/TeamPage.tsx&#45;&gt;../../features/team/hooks/useTeamData.ts -->
<g id="edge13" class="edge">
<title>../../features/team/components/TeamPage.tsx&#45;&gt;../../features/team/hooks/useTeamData.ts</title>
<path fill="none" stroke="#757575" d="M167.72,-242.77C200.83,-225.73 266.4,-194.28 326,-179.33 439.09,-150.95 571.03,-139.52 668.57,-135"/>
<polygon fill="#757575" stroke="#757575" points="668.95,-138.48 678.79,-134.54 668.64,-131.49 668.95,-138.48"/>
</g>
<!-- ../../features/team/index.ts -->
<g id="node13" class="node">
<title>../../features/team/index.ts</title>
<path fill="none" stroke="#ff6c60" d="M548.83,-245.83C548.83,-245.83 391.17,-245.83 391.17,-245.83 387.33,-245.83 383.5,-241.99 383.5,-238.16 383.5,-238.16 383.5,-230.49 383.5,-230.49 383.5,-226.66 387.33,-222.83 391.17,-222.83 391.17,-222.83 548.83,-222.83 548.83,-222.83 552.67,-222.83 556.5,-226.66 556.5,-230.49 556.5,-230.49 556.5,-238.16 556.5,-238.16 556.5,-241.99 552.67,-245.83 548.83,-245.83"/>
<text text-anchor="middle" x="470" y="-230.63" font-family="Arial" font-size="14.00" fill="#ff6c60">../../features/team/index.ts</text>
</g>
<!-- ../../features/team/components/TeamPage.tsx&#45;&gt;../../features/team/index.ts -->
<g id="edge14" class="edge">
<title>../../features/team/components/TeamPage.tsx&#45;&gt;../../features/team/index.ts</title>
<path fill="none" stroke="#757575" d="M233.83,-242.8C276.99,-239.29 329.07,-236.02 373.25,-234.03"/>
<polygon fill="#757575" stroke="#757575" points="373.58,-237.52 383.42,-233.59 373.27,-230.52 373.58,-237.52"/>
</g>
<!-- ../../features/team/services/getTeamData.ts -->
<g id="node14" class="node">
<title>../../features/team/services/getTeamData.ts</title>
<path fill="none" stroke="#c6c5fe" d="M1311.33,-103.83C1311.33,-103.83 1051.67,-103.83 1051.67,-103.83 1047.83,-103.83 1044,-99.99 1044,-96.16 1044,-96.16 1044,-88.49 1044,-88.49 1044,-84.66 1047.83,-80.83 1051.67,-80.83 1051.67,-80.83 1311.33,-80.83 1311.33,-80.83 1315.17,-80.83 1319,-84.66 1319,-88.49 1319,-88.49 1319,-96.16 1319,-96.16 1319,-99.99 1315.17,-103.83 1311.33,-103.83"/>
<text text-anchor="middle" x="1181.5" y="-88.63" font-family="Arial" font-size="14.00" fill="#c6c5fe">../../features/team/services/getTeamData.ts</text>
</g>
<!-- ../../features/team/components/TeamPage.tsx&#45;&gt;../../features/team/services/getTeamData.ts -->
<g id="edge15" class="edge">
<title>../../features/team/components/TeamPage.tsx&#45;&gt;../../features/team/services/getTeamData.ts</title>
<path fill="none" stroke="#757575" d="M163.08,-242.71C207.14,-212.78 321.51,-135.19 326,-133.33 593.35,-22.36 948.89,-56.59 1103.39,-79.25"/>
<polygon fill="#757575" stroke="#757575" points="1103.31,-82.78 1113.72,-80.79 1104.34,-75.86 1103.31,-82.78"/>
</g>
<!-- ../../features/team/components/TeamSection.tsx&#45;&gt;../../features/team/components/PersonCard.tsx -->
<g id="edge17" class="edge">
<title>../../features/team/components/TeamSection.tsx&#45;&gt;../../features/team/components/PersonCard.tsx</title>
<path fill="none" stroke="#757575" d="M923.56,-358.82C966.21,-354.42 1015.04,-349.39 1058.6,-344.9"/>
<polygon fill="#757575" stroke="#757575" points="1059.09,-348.36 1068.68,-343.86 1058.38,-341.4 1059.09,-348.36"/>
</g>
<!-- ../../features/team/components/TeamSection.tsx&#45;&gt;../../features/team/types/index.ts -->
<g id="edge18" class="edge">
<title>../../features/team/components/TeamSection.tsx&#45;&gt;../../features/team/types/index.ts</title>
<path fill="none" stroke="#757575" d="M958.47,-358.74C963.18,-356.27 967.71,-353.48 972,-350.33 1003.09,-327.48 976.73,-293.93 1008,-271.33 1024.78,-259.2 1275.66,-235.92 1427.16,-222.84"/>
<polygon fill="#757575" stroke="#757575" points="1427.78,-226.3 1437.44,-221.95 1427.18,-219.32 1427.78,-226.3"/>
</g>
<!-- ../../features/team/hooks/useTeamData.ts&#45;&gt;../../features/team/types/index.ts -->
<g id="edge20" class="edge">
<title>../../features/team/hooks/useTeamData.ts&#45;&gt;../../features/team/types/index.ts</title>
<path fill="none" stroke="#757575" d="M943,-139.19C1053.25,-145.92 1214.91,-158.02 1355,-177.33 1396.85,-183.09 1443.52,-192.13 1479.64,-199.71"/>
<polygon fill="#757575" stroke="#757575" points="1479.03,-203.16 1489.54,-201.81 1480.48,-196.31 1479.03,-203.16"/>
</g>
<!-- ../../features/team/hooks/useTeamData.ts&#45;&gt;../../features/team/services/getTeamData.ts -->
<g id="edge19" class="edge">
<title>../../features/team/hooks/useTeamData.ts&#45;&gt;../../features/team/services/getTeamData.ts</title>
<path fill="none" stroke="#757575" d="M918.09,-120.81C963.85,-115.84 1017.5,-110.02 1064.33,-104.94"/>
<polygon fill="#757575" stroke="#757575" points="1064.96,-108.39 1074.52,-103.83 1064.2,-101.43 1064.96,-108.39"/>
</g>
<!-- ../../features/team/index.ts&#45;&gt;../../features/team/components/PersonCard.tsx -->
<g id="edge21" class="edge">
<title>../../features/team/index.ts&#45;&gt;../../features/team/components/PersonCard.tsx</title>
<path fill="none" stroke="#757575" d="M556.51,-241.74C575.73,-244.82 595.82,-249.17 614,-255.33 631.34,-261.2 632.55,-269.81 650,-275.33 787.22,-318.7 828.92,-293.88 972,-309.33 1002.74,-312.64 1036.02,-316.29 1066.78,-319.68"/>
<polygon fill="#757575" stroke="#757575" points="1066.79,-323.21 1077.11,-320.82 1067.55,-316.25 1066.79,-323.21"/>
</g>
<!-- ../../features/team/index.ts&#45;&gt;../../features/team/types/index.ts -->
<g id="edge29" class="edge">
<title>../../features/team/index.ts&#45;&gt;../../features/team/types/index.ts</title>
<path fill="none" stroke="#757575" d="M556.75,-232.64C748.48,-228.88 1211.86,-219.79 1427.32,-215.56"/>
<polygon fill="#757575" stroke="#757575" points="1427.46,-219.05 1437.39,-215.36 1427.32,-212.06 1427.46,-219.05"/>
</g>
<!-- ../../features/team/index.ts&#45;&gt;../../features/team/components/PersonDetailsModal.tsx -->
<g id="edge22" class="edge">
<title>../../features/team/index.ts&#45;&gt;../../features/team/components/PersonDetailsModal.tsx</title>
<path fill="none" stroke="#757575" d="M556.58,-241.2C672.93,-250.55 882.98,-267.42 1026.96,-278.99"/>
<polygon fill="#757575" stroke="#757575" points="1026.96,-282.5 1037.21,-279.81 1027.53,-275.52 1026.96,-282.5"/>
</g>
<!-- ../../features/team/index.ts&#45;&gt;../../features/team/components/TeamFilter.tsx -->
<g id="edge23" class="edge">
<title>../../features/team/index.ts&#45;&gt;../../features/team/components/TeamFilter.tsx</title>
<path fill="none" stroke="#757575" d="M527.75,-222.75C562.9,-215.7 609.01,-206.66 650,-199.33 674.59,-194.92 701.37,-190.45 725.85,-186.48"/>
<polygon fill="#757575" stroke="#757575" points="726.52,-189.92 735.83,-184.87 725.4,-183.01 726.52,-189.92"/>
</g>
<!-- ../../features/team/index.ts&#45;&gt;../../features/team/components/TeamPage.tsx -->
<g id="edge24" class="edge">
<title>../../features/team/index.ts&#45;&gt;../../features/team/components/TeamPage.tsx</title>
<path fill="none" stroke="#757575" d="M383.15,-245.69C357.55,-247.79 328.67,-249.81 300.11,-251.53"/>
<polygon fill="#757575" stroke="#757575" points="299.8,-248.04 290.02,-252.12 300.21,-255.03 299.8,-248.04"/>
</g>
<!-- ../../features/team/index.ts&#45;&gt;../../features/team/components/TeamSearchBar.tsx -->
<g id="edge25" class="edge">
<title>../../features/team/index.ts&#45;&gt;../../features/team/components/TeamSearchBar.tsx</title>
<path fill="none" stroke="#757575" d="M556.74,-235.97C576.57,-239.24 596.85,-245.13 614,-255.33 636.92,-268.96 627.19,-289.52 650,-303.33 657.02,-307.57 664.51,-311.19 672.28,-314.26"/>
<polygon fill="#757575" stroke="#757575" points="671.29,-317.63 681.89,-317.75 673.68,-311.05 671.29,-317.63"/>
</g>
<!-- ../../features/team/index.ts&#45;&gt;../../features/team/components/TeamSection.tsx -->
<g id="edge26" class="edge">
<title>../../features/team/index.ts&#45;&gt;../../features/team/components/TeamSection.tsx</title>
<path fill="none" stroke="#757575" d="M556.79,-232.31C577.28,-235.56 597.87,-242.35 614,-255.33 649.19,-283.62 614.51,-322.41 650,-350.33 651.24,-351.3 652.5,-352.24 653.78,-353.15"/>
<polygon fill="#757575" stroke="#757575" points="652.21,-356.3 662.53,-358.69 655.95,-350.38 652.21,-356.3"/>
</g>
<!-- ../../features/team/index.ts&#45;&gt;../../features/team/hooks/useTeamData.ts -->
<g id="edge27" class="edge">
<title>../../features/team/index.ts&#45;&gt;../../features/team/hooks/useTeamData.ts</title>
<path fill="none" stroke="#757575" d="M491.19,-222.79C523.58,-204.85 589.64,-170.53 650,-153.33 660.21,-150.41 670.9,-147.91 681.72,-145.74"/>
<polygon fill="#757575" stroke="#757575" points="682.49,-149.16 691.67,-143.85 681.19,-142.28 682.49,-149.16"/>
</g>
<!-- ../../features/team/index.ts&#45;&gt;../../features/team/services/getTeamData.ts -->
<g id="edge28" class="edge">
<title>../../features/team/index.ts&#45;&gt;../../features/team/services/getTeamData.ts</title>
<path fill="none" stroke="#757575" d="M482.69,-222.74C509.49,-197.08 578.55,-135.84 650,-112.33 793.47,-65.1 970.66,-70.15 1079.6,-79.89"/>
<polygon fill="#757575" stroke="#757575" points="1079.32,-83.38 1089.6,-80.81 1079.96,-76.41 1079.32,-83.38"/>
</g>
<!-- ../../features/team/services/getTeamData.ts&#45;&gt;../../features/team/types/index.ts -->
<g id="edge30" class="edge">
<title>../../features/team/services/getTeamData.ts&#45;&gt;../../features/team/types/index.ts</title>
<path fill="none" stroke="#757575" d="M1285.87,-103.88C1308.94,-107.9 1333.06,-113.24 1355,-120.33 1414.45,-139.52 1478.51,-175.26 1513.79,-196.4"/>
<polygon fill="#757575" stroke="#757575" points="1512.17,-199.51 1522.53,-201.7 1515.79,-193.52 1512.17,-199.51"/>
</g>
<!-- ../../lib/sanity/client.ts -->
<g id="node15" class="node">
<title>../../lib/sanity/client.ts</title>
<path fill="none" stroke="#cfffac" d="M1604.83,-103.83C1604.83,-103.83 1479.17,-103.83 1479.17,-103.83 1475.33,-103.83 1471.5,-99.99 1471.5,-96.16 1471.5,-96.16 1471.5,-88.49 1471.5,-88.49 1471.5,-84.66 1475.33,-80.83 1479.17,-80.83 1479.17,-80.83 1604.83,-80.83 1604.83,-80.83 1608.67,-80.83 1612.5,-84.66 1612.5,-88.49 1612.5,-88.49 1612.5,-96.16 1612.5,-96.16 1612.5,-99.99 1608.67,-103.83 1604.83,-103.83"/>
<text text-anchor="middle" x="1542" y="-88.63" font-family="Arial" font-size="14.00" fill="#cfffac">../../lib/sanity/client.ts</text>
</g>
<!-- ../../features/team/services/getTeamData.ts&#45;&gt;../../lib/sanity/client.ts -->
<g id="edge31" class="edge">
<title>../../features/team/services/getTeamData.ts&#45;&gt;../../lib/sanity/client.ts</title>
<path fill="none" stroke="#757575" d="M1319.06,-92.33C1366.95,-92.33 1419.16,-92.33 1460.91,-92.33"/>
<polygon fill="#757575" stroke="#757575" points="1461.01,-95.83 1471.01,-92.33 1461.01,-88.83 1461.01,-95.83"/>
</g>
<!-- page.tsx -->
<g id="node16" class="node">
<title>page.tsx</title>
<path fill="none" stroke="#c6c5fe" d="M171.33,-146.83C171.33,-146.83 118.67,-146.83 118.67,-146.83 114.83,-146.83 111,-142.99 111,-139.16 111,-139.16 111,-131.49 111,-131.49 111,-127.66 114.83,-123.83 118.67,-123.83 118.67,-123.83 171.33,-123.83 171.33,-123.83 175.17,-123.83 179,-127.66 179,-131.49 179,-131.49 179,-139.16 179,-139.16 179,-142.99 175.17,-146.83 171.33,-146.83"/>
<text text-anchor="middle" x="145" y="-131.63" font-family="Arial" font-size="14.00" fill="#c6c5fe">page.tsx</text>
</g>
<!-- page.tsx&#45;&gt;../../features/team/index.ts -->
<g id="edge32" class="edge">
<title>page.tsx&#45;&gt;../../features/team/index.ts</title>
<path fill="none" stroke="#757575" d="M179.05,-145.46C236.55,-163.08 355.2,-199.44 421.51,-219.77"/>
<polygon fill="#757575" stroke="#757575" points="420.7,-223.18 431.29,-222.77 422.76,-216.49 420.7,-223.18"/>
</g>
<!-- page.tsx&#45;&gt;../../features/team/services/getTeamData.ts -->
<g id="edge33" class="edge">
<title>page.tsx&#45;&gt;../../features/team/services/getTeamData.ts</title>
<path fill="none" stroke="#757575" d="M161.78,-123.54C191.82,-101.92 260.15,-56.64 326,-40.33 604.69,28.71 687.03,-5.33 972,-40.33 1029.59,-47.4 1094.16,-65.07 1135.98,-77.85"/>
<polygon fill="#757575" stroke="#757575" points="1134.99,-81.21 1145.58,-80.82 1137.06,-74.52 1134.99,-81.21"/>
</g>
</g>
</svg>
